# xmcd
#
# Track frame offsets: 
#        150
#        13123
#        22480
#        35115
#        47418
#        57103
#        68215
#        79878
#        102548
#        116543
#        129133
#        139880
#        151765
#        164025
#        176165
#        185810
#        195673
#        208035
#        219695
#        229888
#        240993
#        254120
#        265295
#        276690
#        285758
#        298600
#
# Disc length: 4154 seconds
#
# Revision: 0
# Processed by: cddbd v1.5.2PL0 Copyright (c) Steve Scherf et al.
# Submitted via: ExactAudioCopy v0.99pb5
#
DISCID=9b10381a
DTITLE=Various Artist - Digital Oldies Vol. 1
DYEAR=1900
DGENRE=Easy Listening
TTITLE0=Sealed With A Kiss-Bobby Vinton
TTITLE1=Wooden Heart-Joe Dowell
TTITLE2=Singin' In The Rain-Gene Kelly
TTITLE3=Just Walking In The Rain-Johnny Ray
TTITLE4=Whatever Will Be, Will Be-Doris Day
TTITLE5=Tennessee Waltz-Patti Page
TTITLE6=Rhythm Of The Rain-The Cascades
TTITLE7=Those Were The Days-Mary Hopkin
TTITLE8=The Yellow Rose Of Texas-Mitch Miller
TTITLE9=Tammy-Debbie Reynolds
TTITLE10=Itsy Bitsy Teenie Weenie Yellow Polka Dot Bikini-Brian Hyland
TTITLE11=Will You Still Love Me Tomorrow-The Shirelles
TTITLE12=I'm Sorry-Brenda Lee
TTITLE13=Only You-The Platters
TTITLE14=Wonderful World-Sam Cooke
TTITLE15=Seven Lonely Days-Georgia Gibbs
TTITLE16=Your Cheating Heart-Hank Williams
TTITLE17=Single Girl-Sandy Posey
TTITLE18=Stupid Cupid-Connie Francis
TTITLE19=Hello Dolly-Louis Armstrong
TTITLE20=When A Man Loves A Woman-Percy Sledge
TTITLE21=Run Away-Del Shannon
TTITLE22=Hey Paula-Paul and Paula
TTITLE23=Crying In The Rain-The Everly Brothers
TTITLE24=Goldfinger-Shirley Bassey
TTITLE25=The Hanging Tree-Marty Robbins
EXTD=
EXTT0=
EXTT1=
EXTT2=
EXTT3=
EXTT4=
EXTT5=
EXTT6=
EXTT7=
EXTT8=
EXTT9=
EXTT10=
EXTT11=
EXTT12=
EXTT13=
EXTT14=
EXTT15=
EXTT16=
EXTT17=
EXTT18=
EXTT19=
EXTT20=
EXTT21=
EXTT22=
EXTT23=
EXTT24=
EXTT25=
PLAYORDER=
